<svg xmlns="http://www.w3.org/2000/svg" viewBox="0 0 272.59 324.26"><defs><style>.cls-1{fill:#f6fdfe;}.cls-2{fill:#211f20;}.cls-3{fill:#fff;}</style></defs><title>logofablab</title><g id="Calque_2" data-name="Calque 2"><path class="cls-1" d="M201.68,300.55v31.66l-146.34-83A20.35,20.35,0,0,1,45,231.53V110.43a24.75,24.75,0,0,1,13-21.69l107-58.33a21.08,21.08,0,0,1,20.4.14L293.86,91.77A21,21,0,0,1,304.62,110V230.56a22.67,22.67,0,0,1-11.81,19.83Z" transform="translate(-32.02 -7.95)"/><path class="cls-2" d="M186.36,280.65v31.66l-144.11-83A20.4,20.4,0,0,1,32,211.63V90.53A24.81,24.81,0,0,1,44.81,68.84L150.13,10.51a20.46,20.46,0,0,1,20.08.14L277.13,71.87a21,21,0,0,1,10.59,18.27V210.66a22.73,22.73,0,0,1-11.63,19.83Z" transform="translate(-32.02 -7.95)"/><path class="cls-3" d="M69.64,180.4l-2.09-6.16A37.92,37.92,0,0,1,89,171.61c12.56,1.94,11.3,15.41,11.3,15.41l0,23.06s.42,4.33,4,4.91l-1.72,5.59s-9.36-.8-9.36-7.87c0,0-1.82,7.87-12.67,7.87S67,215,67,215s-2.51-3.2-2.51-12,12.33-12,14.72-12.1,13.25-.22,13.25-.22V183.6s-1.6-6.17-7.42-6.17S76.19,177.89,69.64,180.4Z" transform="translate(-32.02 -7.95)"/><path class="cls-1" d="M45.26,115.05H36.89v6.4H45v88c0,4,2.06,10.81,7,11.11,5.77.36,9-1.22,9-1.22l-1.52-5.48c-6.24,1.37-6.54-3.5-6.54-3.5v-89H63.83l1.07-6.39h-12V107a4.12,4.12,0,0,1,1.42-3.15c5-4.27,14.4-.53,14.4-.53L71,97.86S51.77,90,46.2,103.67a9.58,9.58,0,0,0-.69,3.34Z" transform="translate(-32.02 -7.95)"/><path class="cls-1" d="M71,123.5l-2.1-6.16a38,38,0,0,1,21.46-2.63c12.56,1.94,11.31,15.41,11.31,15.41l0,23.06s.42,4.33,4,4.91l-1.71,5.59s-9.36-.8-9.36-7.87c0,0-1.83,7.87-12.67,7.87s-13.59-5.59-13.59-5.59-2.51-3.2-2.51-12,12.33-12,14.73-12.1,13.24-.22,13.24-.22V126.7s-1.6-6.17-7.42-6.17S77.53,121,71,123.5Z" transform="translate(-32.02 -7.95)"/><path class="cls-1" d="M122.43,120.84a18.59,18.59,0,0,1,14.46-6.61c9.59,0,13.85,9.8,13.85,9.8a67.76,67.76,0,0,1,2.59,17.2c0,8.68-4.72,19.79-13.4,21.62s-16.43-2.29-17.5-5.48v20.56a18.6,18.6,0,0,1,14.46-6.6c9.59,0,13.85,9.8,13.85,9.8a67.66,67.66,0,0,1,2.59,17.2c0,8.67-4.72,19.78-13.4,21.61s-16.43-2.28-17.5-5.48L121,219.65h-6.75V96.79l7.69-1.2Z" transform="translate(-32.02 -7.95)"/></g></svg>