<svg width="399" height="19" viewBox="0 0 399 19" fill="none" xmlns="http://www.w3.org/2000/svg">
<path fill-rule="evenodd" clip-rule="evenodd" d="M7.056 15.075C6.36 15.813 5.35801 16.182 4.05 16.182C2.71799 16.182 1.71 15.816 1.026 15.084C0.341997 14.352 0 13.368 0 12.132V3.654H1.08V12.042C1.08 13.074 1.323 13.866 1.809 14.418C2.295 14.97 3.042 15.246 4.05 15.246C5.05801 15.246 5.802 14.967 6.282 14.409C6.762 13.851 7.002 13.062 7.002 12.042V3.654H8.1V12.132C8.1 13.356 7.752 14.337 7.056 15.075ZM18.612 15.984L12.798 4.842C12.894 6.34201 12.942 7.75799 12.942 9.09V15.984H11.916V3.654H13.302L19.152 14.796C19.056 13.404 19.008 12.186 19.008 11.142V3.654H20.034V15.984H18.612ZM35.325 4.563C36.111 5.169 36.504 6.09599 36.504 7.344C36.504 8.66401 36.093 9.633 35.271 10.251C34.449 10.869 33.324 11.178 31.896 11.178H30.132V15.984H29.052V3.654H31.95C33.414 3.654 34.539 3.957 35.325 4.563ZM34.47 9.63C35.07 9.186 35.37 8.43 35.37 7.362C35.37 6.35399 35.079 5.631 34.497 5.193C33.915 4.755 33.06 4.536 31.932 4.536H30.132V10.296H31.896C33.012 10.296 33.87 10.074 34.47 9.63ZM40.392 10.458V15.984H39.312V3.654H42.3C45.228 3.654 46.692 4.76999 46.692 7.002C46.692 7.89 46.458 8.598 45.99 9.126C45.522 9.654 44.838 10.032 43.938 10.26L47.322 15.984H46.026L42.858 10.458H40.392ZM45.54 7.002C45.54 6.162 45.282 5.541 44.766 5.139C44.25 4.737 43.416 4.536 42.264 4.536H40.392V9.576H42.444C44.508 9.576 45.54 8.71801 45.54 7.002ZM56.61 4.185C57.366 4.671 57.954 5.394 58.374 6.354C58.794 7.31401 59.004 8.47199 59.004 9.828C59.004 11.16 58.797 12.303 58.383 13.257C57.969 14.211 57.384 14.937 56.628 15.435C55.872 15.933 54.984 16.182 53.964 16.182C52.968 16.182 52.092 15.936 51.336 15.444C50.58 14.952 49.992 14.232 49.572 13.284C49.152 12.336 48.942 11.19 48.942 9.846C48.942 8.51399 49.152 7.36801 49.572 6.408C49.992 5.448 50.583 4.716 51.345 4.212C52.107 3.708 52.98 3.456 53.964 3.456C54.972 3.456 55.854 3.699 56.61 4.185ZM51.12 5.751C50.424 6.66901 50.076 8.03399 50.076 9.846C50.076 11.634 50.427 12.984 51.129 13.896C51.831 14.808 52.776 15.264 53.964 15.264C55.2 15.264 56.16 14.811 56.844 13.905C57.528 12.999 57.87 11.64 57.87 9.828C57.87 8.00399 57.525 6.63901 56.835 5.733C56.145 4.827 55.188 4.374 53.964 4.374C52.764 4.374 51.816 4.833 51.12 5.751ZM63.063 16.119C62.877 16.581 62.586 16.962 62.19 17.262C61.794 17.562 61.242 17.85 60.534 18.126L60.246 17.334C60.798 17.094 61.218 16.845 61.506 16.587C61.794 16.329 61.992 16.023 62.1 15.669C62.208 15.315 62.262 14.85 62.262 14.274V3.654H63.342V14.328C63.342 15.06 63.249 15.657 63.063 16.119ZM68.328 4.554V9.144H72.702V10.044H68.328V15.084H73.638V15.984H67.248V3.654H73.512L73.386 4.554H68.328ZM79.452 4.608V15.984H78.39V4.608H74.736V3.654H83.196L83.07 4.608H79.452ZM96.993 4.95C98.055 5.814 98.586 7.40399 98.586 9.72C98.586 12.036 98.049 13.659 96.975 14.589C95.901 15.519 94.59 15.984 93.042 15.984H90.396V3.654H92.844C94.548 3.654 95.931 4.086 96.993 4.95ZM91.476 15.084H93.114C96.006 15.084 97.452 13.296 97.452 9.72C97.452 8.30399 97.242 7.218 96.822 6.462C96.402 5.706 95.871 5.199 95.229 4.941C94.587 4.683 93.84 4.554 92.988 4.554H91.476V15.084ZM108.648 15.075C107.952 15.813 106.95 16.182 105.642 16.182C104.31 16.182 103.302 15.816 102.618 15.084C101.934 14.352 101.592 13.368 101.592 12.132V3.654H102.672V12.042C102.672 13.074 102.915 13.866 103.401 14.418C103.887 14.97 104.634 15.246 105.642 15.246C106.65 15.246 107.394 14.967 107.874 14.409C108.354 13.851 108.594 13.062 108.594 12.042V3.654H109.692V12.132C109.692 13.356 109.344 14.337 108.648 15.075ZM119.61 9.954V15.984H118.53V3.654H119.61V9.036H125.514V3.654H126.594V15.984H125.514V9.954H119.61ZM137.466 15.075C136.77 15.813 135.768 16.182 134.46 16.182C133.128 16.182 132.12 15.816 131.436 15.084C130.752 14.352 130.41 13.368 130.41 12.132V3.654H131.49V12.042C131.49 13.074 131.733 13.866 132.219 14.418C132.705 14.97 133.452 15.246 134.46 15.246C135.468 15.246 136.212 14.967 136.692 14.409C137.172 13.851 137.412 13.062 137.412 12.042V3.654H138.51V12.132C138.51 13.356 138.162 14.337 137.466 15.075ZM149.328 10.341C149.856 10.839 150.12 11.58 150.12 12.564C150.12 13.716 149.73 14.574 148.95 15.138C148.17 15.702 147.084 15.984 145.692 15.984H142.326V3.654H145.08C146.508 3.654 147.609 3.912 148.383 4.428C149.157 4.944 149.544 5.71199 149.544 6.732C149.544 7.488 149.337 8.1 148.923 8.568C148.509 9.036 147.96 9.33 147.276 9.45C148.116 9.546 148.8 9.843 149.328 10.341ZM143.406 9.072H145.89C146.658 9.072 147.276 8.871 147.744 8.469C148.212 8.067 148.446 7.512 148.446 6.804C148.446 6 148.173 5.424 147.627 5.076C147.081 4.728 146.268 4.554 145.188 4.554H143.406V9.072ZM149.004 12.564C149.004 11.676 148.731 11.016 148.185 10.584C147.639 10.152 146.916 9.936 146.016 9.936H143.406V15.084H145.692C147.9 15.084 149.004 14.244 149.004 12.564ZM164.025 3.735C164.499 3.921 164.976 4.206 165.456 4.59L164.88 5.31C164.46 4.974 164.058 4.734 163.674 4.59C163.29 4.446 162.852 4.374 162.36 4.374C161.196 4.374 160.251 4.818 159.525 5.706C158.799 6.59401 158.436 7.96199 158.436 9.81C158.436 11.01 158.604 12.018 158.94 12.834C159.276 13.65 159.735 14.253 160.317 14.643C160.899 15.033 161.562 15.228 162.306 15.228C162.882 15.228 163.371 15.141 163.773 14.967C164.175 14.793 164.592 14.532 165.024 14.184L165.6 14.904C164.724 15.756 163.614 16.182 162.27 16.182C161.31 16.182 160.455 15.936 159.705 15.444C158.955 14.952 158.367 14.229 157.941 13.275C157.515 12.321 157.302 11.166 157.302 9.81C157.302 8.45399 157.524 7.29901 157.968 6.345C158.412 5.391 159.009 4.671 159.759 4.185C160.509 3.699 161.352 3.456 162.288 3.456C162.972 3.456 163.551 3.549 164.025 3.735ZM169.092 10.458V15.984H168.012V3.654H171C173.928 3.654 175.392 4.76999 175.392 7.002C175.392 7.89 175.158 8.598 174.69 9.126C174.222 9.654 173.538 10.032 172.638 10.26L176.022 15.984H174.726L171.558 10.458H169.092ZM174.24 7.002C174.24 6.162 173.982 5.541 173.466 5.139C172.95 4.737 172.116 4.536 170.964 4.536H169.092V9.576H171.144C173.208 9.576 174.24 8.71801 174.24 7.002ZM179.712 4.554V9.144H184.086V10.044H179.712V15.084H185.022V15.984H178.632V3.654H184.896L184.77 4.554H179.712ZM180.252 2.34L179.964 1.728L183.33 0L183.816 0.936L180.252 2.34ZM188.316 12.618L187.236 15.984H186.138L190.26 3.654H191.61L195.714 15.984H194.58L193.5 12.618H188.316ZM190.926 4.536L188.604 11.7H193.212L190.926 4.536ZM200.106 4.608V15.984H199.044V4.608H195.39V3.654H203.85L203.724 4.608H200.106ZM206.028 15.984V3.654H207.108V15.984H206.028ZM212.184 4.554V9.36H216.45V10.26H212.184V15.984H211.104V3.654H217.26L217.134 4.554H212.184ZM230.597 4.494C231.659 5.358 232.19 6.94799 232.19 9.264C232.19 11.58 231.653 13.203 230.579 14.133C229.505 15.063 228.194 15.528 226.646 15.528H224V3.198H226.448C228.152 3.198 229.535 3.62999 230.597 4.494ZM225.08 14.628H226.718C229.61 14.628 231.056 12.84 231.056 9.264C231.056 7.84799 230.846 6.762 230.426 6.006C230.006 5.25 229.475 4.743 228.833 4.485C228.191 4.227 227.444 4.098 226.592 4.098H225.08V14.628ZM236.456 4.098V8.688H240.83V9.588H236.456V14.628H241.766V15.528H235.376V3.198H241.64L241.514 4.098H236.456ZM257.588 15.528L254.888 4.404L252.188 15.528H250.874L248.156 3.198H249.254L251.594 14.538L254.294 3.198H255.5L258.254 14.538L260.612 3.198H261.638L258.938 15.528H257.588ZM264.302 12.162L263.222 15.528H262.124L266.246 3.198H267.596L271.7 15.528H270.566L269.486 12.162H264.302ZM266.912 4.08L264.59 11.244H269.198L266.912 4.08ZM280.232 14.556L280.088 15.528H274.004V3.198H275.084V14.556H280.232ZM288.764 14.556L288.62 15.528H282.536V3.198H283.616V14.556H288.764ZM297.746 3.729C298.502 4.215 299.09 4.938 299.51 5.898C299.93 6.858 300.14 8.01599 300.14 9.372C300.14 10.704 299.933 11.847 299.519 12.801C299.105 13.755 298.52 14.481 297.764 14.979C297.008 15.477 296.12 15.726 295.1 15.726C294.104 15.726 293.228 15.48 292.472 14.988C291.716 14.496 291.128 13.776 290.708 12.828C290.288 11.88 290.078 10.734 290.078 9.39C290.078 8.05799 290.288 6.912 290.708 5.952C291.128 4.992 291.719 4.26 292.481 3.756C293.243 3.252 294.116 3 295.1 3C296.108 3 296.99 3.243 297.746 3.729ZM292.256 5.295C291.56 6.213 291.212 7.57799 291.212 9.39C291.212 11.178 291.563 12.528 292.265 13.44C292.967 14.352 293.912 14.808 295.1 14.808C296.336 14.808 297.296 14.355 297.98 13.449C298.664 12.543 299.006 11.184 299.006 9.372C299.006 7.54799 298.661 6.183 297.971 5.277C297.281 4.37099 296.324 3.918 295.1 3.918C293.9 3.918 292.952 4.37699 292.256 5.295ZM310.022 15.528L304.208 4.386C304.304 5.88601 304.352 7.30199 304.352 8.634V15.528H303.326V3.198H304.712L310.562 14.34C310.466 12.948 310.418 11.73 310.418 10.686V3.198H311.444V15.528H310.022ZM315.44 15.528V3.198H316.52V15.528H315.44ZM321.596 4.098V8.688H325.97V9.588H321.596V14.628H326.906V15.528H320.516V3.198H326.78L326.654 4.098H321.596ZM341.027 4.107C341.813 4.713 342.206 5.63999 342.206 6.888C342.206 8.208 341.795 9.177 340.973 9.795C340.151 10.413 339.026 10.722 337.598 10.722H335.834V15.528H334.754V3.198H337.652C339.116 3.198 340.241 3.501 341.027 4.107ZM340.172 9.174C340.772 8.73 341.072 7.97401 341.072 6.906C341.072 5.898 340.781 5.175 340.199 4.737C339.617 4.299 338.762 4.08 337.634 4.08H335.834V9.84H337.598C338.714 9.84 339.572 9.618 340.172 9.174ZM345.014 15.528V3.198H346.094V15.528H345.014ZM356.003 3.279C356.477 3.465 356.954 3.75 357.434 4.134L356.858 4.854C356.438 4.518 356.036 4.278 355.652 4.134C355.268 3.99 354.83 3.918 354.338 3.918C353.174 3.918 352.229 4.362 351.503 5.25C350.777 6.138 350.414 7.50599 350.414 9.354C350.414 10.554 350.582 11.562 350.918 12.378C351.254 13.194 351.713 13.797 352.295 14.187C352.877 14.577 353.54 14.772 354.284 14.772C354.86 14.772 355.349 14.685 355.751 14.511C356.153 14.337 356.57 14.076 357.002 13.728L357.578 14.448C356.702 15.3 355.592 15.726 354.248 15.726C353.288 15.726 352.433 15.48 351.683 14.988C350.933 14.496 350.345 13.773 349.919 12.819C349.493 11.865 349.28 10.71 349.28 9.354C349.28 7.99799 349.502 6.843 349.946 5.889C350.39 4.935 350.987 4.215 351.737 3.729C352.487 3.243 353.33 3 354.266 3C354.95 3 355.529 3.093 356.003 3.279ZM360.458 12.162L359.378 15.528H358.28L362.402 3.198H363.752L367.856 15.528H366.722L365.642 12.162H360.458ZM363.068 4.08L360.746 11.244H365.354L363.068 4.08ZM371.24 10.002V15.528H370.16V3.198H373.148C376.076 3.198 377.54 4.31399 377.54 6.546C377.54 7.434 377.306 8.142 376.838 8.67C376.37 9.198 375.686 9.576 374.786 9.804L378.17 15.528H376.874L373.706 10.002H371.24ZM376.388 6.546C376.388 5.706 376.13 5.085 375.614 4.683C375.098 4.281 374.264 4.08 373.112 4.08H371.24V9.12H373.292C375.356 9.12 376.388 8.26201 376.388 6.546ZM387.377 4.494C388.439 5.358 388.97 6.94799 388.97 9.264C388.97 11.58 388.433 13.203 387.359 14.133C386.285 15.063 384.974 15.528 383.426 15.528H380.78V3.198H383.228C384.932 3.198 386.315 3.62999 387.377 4.494ZM381.86 14.628H383.498C386.39 14.628 387.836 12.84 387.836 9.264C387.836 7.84799 387.626 6.762 387.206 6.006C386.786 5.25 386.255 4.743 385.613 4.485C384.971 4.227 384.224 4.098 383.372 4.098H381.86V14.628ZM393.236 4.098V8.688H397.61V9.588H393.236V14.628H398.546V15.528H392.156V3.198H398.42L398.294 4.098H393.236Z" fill="#221F20"/>
</svg>
