<?xml version="1.0" encoding="utf-8"?>
<!-- Generator: Adobe Illustrator 23.0.6, SVG Export Plug-In . SVG Version: 6.00 Build 0)  -->
<svg version="1.1" id="Layer_1" xmlns="http://www.w3.org/2000/svg" xmlns:xlink="http://www.w3.org/1999/xlink" x="0px" y="0px"
	 viewBox="0 0 301.33 50.18" style="enable-background:new 0 0 301.33 50.18;" xml:space="preserve">
<style type="text/css">
	.st0{fill-rule:evenodd;clip-rule:evenodd;fill:#221F20;}
</style>
<path class="st0" d="M9.68,20.89c-0.97,1.02-2.35,1.54-4.17,1.54c-1.85,0-3.25-0.51-4.19-1.52C0.37,19.88-0.1,18.52-0.1,16.8V5.05
	h1.5v11.63c0,1.43,0.34,2.53,1.01,3.3s1.71,1.15,3.11,1.15c1.4,0,2.43-0.39,3.1-1.16c0.67-0.77,1-1.87,1-3.28V5.05h1.52V16.8
	C11.13,18.5,10.65,19.86,9.68,20.89z M25.71,22.15L17.65,6.69c0.13,2.08,0.2,4.04,0.2,5.89v9.56h-1.42V5.05h1.92l8.11,15.45
	c-0.13-1.93-0.2-3.62-0.2-5.07V5.05h1.42v17.1H25.71z M48.89,6.31c1.09,0.84,1.64,2.13,1.64,3.86c0,1.83-0.57,3.17-1.71,4.03
	c-1.14,0.86-2.7,1.29-4.68,1.29h-2.45v6.67h-1.5V5.05h4.02C46.24,5.05,47.8,5.47,48.89,6.31z M47.7,13.33
	c0.83-0.62,1.25-1.66,1.25-3.15c0-1.4-0.4-2.4-1.21-3.01c-0.81-0.61-1.99-0.91-3.56-0.91h-2.5v7.99h2.45
	C45.68,14.26,46.87,13.95,47.7,13.33z M55.92,14.48v7.66h-1.5V5.05h4.14c4.06,0,6.09,1.55,6.09,4.64c0,1.23-0.32,2.21-0.97,2.95
	c-0.65,0.73-1.6,1.26-2.85,1.57l4.69,7.94h-1.8l-4.39-7.66H55.92z M63.06,9.69c0-1.17-0.36-2.03-1.07-2.58
	c-0.72-0.56-1.87-0.84-3.47-0.84h-2.6v6.99h2.85C61.63,13.26,63.06,12.07,63.06,9.69z M78.41,5.78c1.05,0.67,1.86,1.68,2.45,3.01
	c0.58,1.33,0.87,2.94,0.87,4.82c0,1.85-0.29,3.43-0.86,4.76c-0.57,1.32-1.39,2.33-2.43,3.02c-1.05,0.69-2.28,1.04-3.69,1.04
	c-1.38,0-2.6-0.34-3.64-1.02c-1.05-0.68-1.86-1.68-2.45-3c-0.58-1.31-0.87-2.9-0.87-4.77c0-1.85,0.29-3.44,0.87-4.77
	c0.58-1.33,1.4-2.35,2.46-3.05c1.06-0.7,2.27-1.05,3.63-1.05C76.14,4.77,77.36,5.11,78.41,5.78z M70.8,7.95
	c-0.97,1.27-1.45,3.17-1.45,5.68c0,2.48,0.49,4.35,1.46,5.62c0.97,1.26,2.28,1.9,3.93,1.9c1.71,0,3.05-0.63,3.99-1.88
	c0.95-1.26,1.42-3.14,1.42-5.65c0-2.53-0.48-4.42-1.44-5.68s-2.28-1.88-3.98-1.88C73.08,6.04,71.76,6.68,70.8,7.95z M87.36,22.33
	c-0.26,0.64-0.66,1.17-1.21,1.59c-0.55,0.42-1.31,0.82-2.3,1.2l-0.4-1.1c0.77-0.33,1.35-0.68,1.75-1.04
	c0.4-0.36,0.67-0.78,0.82-1.27c0.15-0.49,0.22-1.14,0.22-1.93V5.05h1.5v14.8C87.75,20.86,87.62,21.69,87.36,22.33z M94.66,6.29v6.37
	h6.07v1.25h-6.07v6.99h7.36v1.25h-8.86V5.05h8.69l-0.18,1.25H94.66z M110.09,6.37v15.78h-1.47V6.37h-5.07V5.05h11.73l-0.18,1.32
	H110.09z M134.42,6.84c1.47,1.2,2.21,3.4,2.21,6.62c0,3.21-0.74,5.46-2.23,6.75c-1.49,1.29-3.31,1.93-5.46,1.93h-3.67V5.05h3.4
	C131.03,5.05,132.95,5.64,134.42,6.84z M126.77,20.9h2.27c4.01,0,6.02-2.48,6.02-7.44c0-1.96-0.29-3.47-0.87-4.52
	c-0.58-1.05-1.32-1.75-2.21-2.11c-0.89-0.36-1.93-0.54-3.11-0.54h-2.1V20.9z M150.58,20.89c-0.96,1.02-2.35,1.54-4.17,1.54
	c-1.85,0-3.25-0.51-4.19-1.52c-0.95-1.02-1.42-2.38-1.42-4.09V5.05h1.5v11.63c0,1.43,0.34,2.53,1.01,3.3
	c0.67,0.77,1.71,1.15,3.11,1.15c1.4,0,2.43-0.39,3.1-1.16c0.67-0.77,1-1.87,1-3.28V5.05h1.52V16.8
	C152.03,18.5,151.55,19.86,150.58,20.89z M165.79,13.78v8.36h-1.5V5.05h1.5v7.46h8.19V5.05h1.5v17.1h-1.5v-8.36H165.79z
	 M190.55,20.89c-0.97,1.02-2.36,1.54-4.17,1.54c-1.85,0-3.24-0.51-4.19-1.52c-0.95-1.02-1.42-2.38-1.42-4.09V5.05h1.5v11.63
	c0,1.43,0.34,2.53,1.01,3.3s1.71,1.15,3.11,1.15s2.43-0.39,3.1-1.16c0.67-0.77,1-1.87,1-3.28V5.05H192V16.8
	C192,18.5,191.52,19.86,190.55,20.89z M207,14.32c0.73,0.69,1.1,1.72,1.1,3.08c0,1.6-0.54,2.79-1.62,3.57
	c-1.08,0.78-2.59,1.17-4.52,1.17h-4.67V5.05h3.82c1.98,0,3.51,0.36,4.58,1.07c1.07,0.72,1.61,1.78,1.61,3.2
	c0,1.05-0.29,1.9-0.86,2.55c-0.57,0.65-1.34,1.06-2.28,1.22C205.32,13.22,206.27,13.63,207,14.32z M198.79,12.56h3.45
	c1.07,0,1.92-0.28,2.57-0.84c0.65-0.56,0.97-1.33,0.97-2.31c0-1.12-0.38-1.91-1.14-2.4c-0.76-0.48-1.88-0.72-3.38-0.72h-2.47V12.56z
	 M206.56,17.4c0-1.23-0.38-2.15-1.14-2.75c-0.76-0.6-1.76-0.9-3.01-0.9h-3.62v7.14h3.17C205.02,20.9,206.56,19.73,206.56,17.4z
	 M227.39,5.16c0.66,0.26,1.32,0.65,1.98,1.19l-0.8,1c-0.58-0.47-1.14-0.8-1.67-1c-0.53-0.2-1.14-0.3-1.82-0.3
	c-1.61,0-2.93,0.62-3.93,1.85c-1.01,1.23-1.51,3.13-1.51,5.69c0,1.66,0.23,3.06,0.7,4.19c0.47,1.13,1.1,1.97,1.91,2.51
	c0.81,0.54,1.73,0.81,2.76,0.81c0.8,0,1.48-0.12,2.03-0.36c0.56-0.24,1.14-0.6,1.74-1.09l0.8,1c-1.21,1.18-2.75,1.77-4.62,1.77
	c-1.33,0-2.52-0.34-3.56-1.02c-1.04-0.68-1.86-1.69-2.45-3.01c-0.59-1.32-0.89-2.93-0.89-4.81s0.31-3.48,0.92-4.81
	c0.62-1.32,1.44-2.32,2.48-3c1.04-0.67,2.21-1.01,3.51-1.01C225.93,4.77,226.73,4.9,227.39,5.16z M234.42,14.48v7.66h-1.5V5.05h4.14
	c4.06,0,6.09,1.55,6.09,4.64c0,1.23-0.32,2.21-0.97,2.95s-1.6,1.26-2.85,1.57l4.69,7.94h-1.8l-4.39-7.66H234.42z M241.56,9.69
	c0-1.17-0.36-2.03-1.07-2.58c-0.72-0.56-1.87-0.84-3.47-0.84h-2.6v6.99h2.85C240.12,13.26,241.56,12.07,241.56,9.69z M249.14,6.29
	v6.37h6.07v1.25h-6.07v6.99h7.37v1.25h-8.86V5.05h8.69l-0.17,1.25H249.14z M249.89,3.22l-0.4-0.85l4.67-2.4l0.67,1.3L249.89,3.22z
	 M261.08,17.48l-1.5,4.67h-1.52l5.72-17.1h1.87l5.69,17.1h-1.57l-1.5-4.67H261.08z M264.7,6.27l-3.22,9.94h6.39L264.7,6.27z
	 M277.43,6.37v15.78h-1.47V6.37h-5.07V5.05h11.73l-0.18,1.32H277.43z M285.64,22.15V5.05h1.5v17.1H285.64z M294.18,6.29v6.67h5.92
	v1.25h-5.92v7.94h-1.5V5.05h8.54l-0.18,1.25H294.18z M9.3,34.58c1.47,1.2,2.21,3.4,2.21,6.62c0,3.21-0.74,5.46-2.23,6.75
	c-1.49,1.29-3.31,1.93-5.45,1.93H0.15v-17.1h3.4C5.9,32.78,7.82,33.38,9.3,34.58z M1.64,48.64h2.27c4.01,0,6.02-2.48,6.02-7.44
	c0-1.96-0.29-3.47-0.87-4.52c-0.58-1.05-1.32-1.75-2.21-2.11c-0.89-0.36-1.93-0.54-3.11-0.54h-2.1V48.64z M17.42,34.03v6.37h6.07
	v1.25h-6.07v6.99h7.36v1.25h-8.86v-17.1h8.69l-0.17,1.25H17.42z M46.73,49.89l-3.74-15.43l-3.74,15.43h-1.82l-3.77-17.1h1.52
	l3.25,15.73l3.74-15.73h1.67l3.82,15.73l3.27-15.73h1.42l-3.74,17.1H46.73z M56.04,45.22l-1.5,4.67h-1.52l5.72-17.1h1.87l5.69,17.1
	h-1.57l-1.5-4.67H56.04z M59.66,34.01l-3.22,9.94h6.39L59.66,34.01z M78.14,48.54l-0.2,1.35H69.5v-17.1H71v15.75H78.14z
	 M89.97,48.54l-0.2,1.35h-8.44v-17.1h1.5v15.75H89.97z M102.43,33.52c1.05,0.67,1.86,1.68,2.45,3.01c0.58,1.33,0.87,2.94,0.87,4.82
	c0,1.85-0.29,3.43-0.86,4.76c-0.57,1.32-1.39,2.33-2.43,3.02c-1.05,0.69-2.28,1.04-3.69,1.04c-1.38,0-2.6-0.34-3.64-1.02
	s-1.86-1.68-2.45-3c-0.58-1.31-0.87-2.9-0.87-4.77c0-1.85,0.29-3.44,0.87-4.77c0.58-1.33,1.4-2.35,2.46-3.05
	c1.06-0.7,2.27-1.05,3.63-1.05C100.16,32.51,101.38,32.85,102.43,33.52z M94.81,35.69c-0.97,1.27-1.45,3.17-1.45,5.68
	c0,2.48,0.49,4.35,1.46,5.62c0.97,1.26,2.28,1.9,3.93,1.9c1.71,0,3.05-0.63,3.99-1.88c0.95-1.26,1.42-3.14,1.42-5.65
	c0-2.53-0.48-4.42-1.44-5.68c-0.96-1.26-2.28-1.88-3.98-1.88C97.09,33.78,95.78,34.42,94.81,35.69z M119.45,49.89l-8.06-15.45
	c0.13,2.08,0.2,4.04,0.2,5.89v9.56h-1.42v-17.1h1.92l8.11,15.45c-0.13-1.93-0.2-3.62-0.2-5.07V32.78h1.42v17.1H119.45z
	 M126.97,49.89v-17.1h1.5v17.1H126.97z M135.51,34.03v6.37h6.07v1.25h-6.07v6.99h7.36v1.25h-8.86v-17.1h8.69l-0.18,1.25H135.51z
	 M162.45,34.04c1.09,0.84,1.63,2.13,1.63,3.86c0,1.83-0.57,3.17-1.71,4.03c-1.14,0.86-2.7,1.29-4.68,1.29h-2.45v6.67h-1.5v-17.1
	h4.02C159.8,32.78,161.36,33.2,162.45,34.04z M161.27,41.07c0.83-0.62,1.25-1.66,1.25-3.15c0-1.4-0.4-2.4-1.21-3.01
	c-0.81-0.61-1.99-0.91-3.56-0.91h-2.5V42h2.45C159.25,42,160.44,41.69,161.27,41.07z M167.98,49.89v-17.1h1.5v17.1H167.98z
	 M183.23,32.9c0.66,0.26,1.32,0.65,1.99,1.19l-0.8,1c-0.58-0.47-1.14-0.8-1.67-1c-0.53-0.2-1.14-0.3-1.82-0.3
	c-1.62,0-2.93,0.62-3.93,1.85c-1.01,1.23-1.51,3.13-1.51,5.69c0,1.66,0.23,3.06,0.7,4.19c0.47,1.13,1.1,1.97,1.91,2.51
	c0.81,0.54,1.73,0.81,2.76,0.81c0.8,0,1.48-0.12,2.03-0.36c0.56-0.24,1.14-0.6,1.74-1.09l0.8,1c-1.21,1.18-2.75,1.77-4.62,1.77
	c-1.33,0-2.52-0.34-3.56-1.02c-1.04-0.68-1.86-1.69-2.45-3.01c-0.59-1.32-0.89-2.93-0.89-4.81c0-1.88,0.31-3.48,0.92-4.81
	c0.62-1.32,1.44-2.32,2.48-3c1.04-0.67,2.21-1.01,3.51-1.01C181.76,32.51,182.57,32.64,183.23,32.9z M189.4,45.22l-1.5,4.67h-1.52
	l5.72-17.1h1.87l5.69,17.1h-1.57l-1.5-4.67H189.4z M193.02,34.01l-3.22,9.94h6.39L193.02,34.01z M204.36,42.22v7.66h-1.5v-17.1H207
	c4.06,0,6.09,1.55,6.09,4.64c0,1.23-0.32,2.21-0.97,2.95s-1.6,1.26-2.85,1.57l4.69,7.94h-1.8l-4.39-7.66H204.36z M211.5,37.43
	c0-1.17-0.36-2.03-1.07-2.58c-0.72-0.56-1.87-0.84-3.47-0.84h-2.6V41h2.85C210.07,41,211.5,39.81,211.5,37.43z M226.74,34.58
	c1.47,1.2,2.21,3.4,2.21,6.62c0,3.21-0.74,5.46-2.23,6.75c-1.49,1.29-3.31,1.93-5.45,1.93h-3.67v-17.1h3.4
	C223.35,32.78,225.27,33.38,226.74,34.58z M219.09,48.64h2.27c4.01,0,6.02-2.48,6.02-7.44c0-1.96-0.29-3.47-0.87-4.52
	c-0.58-1.05-1.32-1.75-2.21-2.11c-0.89-0.36-1.93-0.54-3.11-0.54h-2.1V48.64z M234.87,34.03v6.37h6.07v1.25h-6.07v6.99h7.36v1.25
	h-8.86v-17.1h8.69l-0.17,1.25H234.87z"/>
</svg>
